<svg xmlns="http://www.w3.org/2000/svg"  viewBox="0 0 100 100" width="100px" height="100px"><path fill="#c7ede6" d="M87.215,56.71C88.35,54.555,89,52.105,89,49.5c0-6.621-4.159-12.257-10.001-14.478 C78.999,35.015,79,35.008,79,35c0-11.598-9.402-21-21-21c-9.784,0-17.981,6.701-20.313,15.757C36.211,29.272,34.638,29,33,29 c-7.692,0-14.023,5.793-14.89,13.252C12.906,43.353,9,47.969,9,53.5C9,59.851,14.149,65,20.5,65c0.177,0,0.352-0.012,0.526-0.022 C21.022,65.153,21,65.324,21,65.5C21,76.822,30.178,86,41.5,86c6.437,0,12.175-2.972,15.934-7.614C59.612,80.611,62.64,82,66,82 c4.65,0,8.674-2.65,10.666-6.518C77.718,75.817,78.837,76,80,76c6.075,0,11-4.925,11-11C91,61.689,89.53,58.727,87.215,56.71z"/><path fill="#fdfcef" d="M75.5,60.5V61h3v-0.5c1.878,0,4.184,0,5.5,0c2.485,0,4.5-2.015,4.5-4.5 c0-2.333-1.782-4.229-4.055-4.455C84.467,51.364,84.5,51.187,84.5,51c0-2.485-2.015-4.5-4.5-4.5c-1.438,0-2.703,0.686-3.527,1.736 C76.333,45.6,74.171,43.5,71.5,43.5c-2.761,0-5,2.239-5,5c0,0.446,0.077,0.87,0.187,1.282C66.045,49.005,65.086,48.5,64,48.5 c-1.781,0-3.234,1.335-3.455,3.055C60.364,51.533,60.187,51.5,60,51.5c-2.485,0-4.5,2.015-4.5,4.5s2.015,4.5,4.5,4.5s9.5,0,9.5,0 H75.5z"/><path fill="#472b29" d="M70 50c-1.403 0-2.609.999-2.913 2.341C66.72 52.119 66.301 52 65.875 52c-1.202 0-2.198.897-2.353 2.068C63.319 54.022 63.126 54 62.937 54c-1.529 0-2.811 1.2-2.918 2.732C60.01 56.87 60.114 56.99 60.251 57c.006 0 .012 0 .018 0 .13 0 .24-.101.249-.232.089-1.271 1.151-2.268 2.419-2.268.229 0 .47.042.738.127.022.007.045.01.067.01.055 0 .11-.02.156-.054C63.962 54.537 64 54.455 64 54.375c0-1.034.841-1.875 1.875-1.875.447 0 .885.168 1.231.473.047.041.106.063.165.063.032 0 .063-.006.093-.019.088-.035.148-.117.155-.212C67.623 51.512 68.712 50.5 70 50.5c.208 0 .425.034.682.107.023.007.047.01.07.01.109 0 .207-.073.239-.182.038-.133-.039-.271-.172-.309C70.517 50.04 70.256 50 70 50L70 50zM83.883 51.5c-1.326 0-2.508.897-2.874 2.182-.038.133.039.271.172.309C81.205 53.997 81.228 54 81.25 54c.109 0 .209-.072.24-.182C81.795 52.748 82.779 52 83.883 52c.117 0 .23.014.342.029.012.002.023.003.035.003.121 0 .229-.092.246-.217.019-.137-.077-.263-.214-.281C84.158 51.516 84.022 51.5 83.883 51.5L83.883 51.5z"/><path fill="#472b29" d="M84.997,51.123C84.999,51.082,85,51.041,85,51c0-2.757-2.243-5-5-5 c-1.176,0-2.293,0.416-3.183,1.164C76.219,44.76,74.055,43,71.5,43c-3.033,0-5.5,2.467-5.5,5.5c0,0.016,0,0.031,0,0.047 C65.398,48.192,64.71,48,64,48c-1.831,0-3.411,1.261-3.858,3.005C60.095,51.002,60.048,51,60,51c-2.757,0-5,2.243-5,5s2.243,5,5,5 h15.5c0.276,0,0.5-0.224,0.5-0.5S75.776,60,75.5,60H60c-2.206,0-4-1.794-4-4s1.794-4,4-4c0.117,0,0.23,0.017,0.343,0.032 l0.141,0.019c0.021,0.003,0.041,0.004,0.062,0.004c0.246,0,0.462-0.185,0.495-0.437C61.232,50.125,62.504,49,64,49 c0.885,0,1.723,0.401,2.301,1.1c0.098,0.118,0.241,0.182,0.386,0.182c0.077,0,0.156-0.018,0.228-0.056 c0.032-0.017,0.057-0.041,0.084-0.064c0,0,0-1.501,0-1.662c0-2.481,2.019-4.5,4.5-4.5c2.381,0,4.347,1.872,4.474,4.263 c0.011,0.208,0.15,0.387,0.349,0.45c0.05,0.016,0.101,0.024,0.152,0.024c0.15,0,0.296-0.069,0.392-0.192 C77.638,47.563,78.779,47,80,47c2.206,0,4,1.794,4,4c0,0.117-0.017,0.23-0.032,0.343l-0.019,0.141 c-0.016,0.134,0.022,0.268,0.106,0.373s0.207,0.172,0.34,0.185C86.451,52.247,88,53.949,88,56c0,2.206-1.794,4-4,4h-5.5 c-0.276,0-0.5,0.224-0.5,0.5s0.224,0.5,0.5,0.5H84c2.757,0,5-2.243,5-5C89,53.603,87.311,51.587,84.997,51.123z"/><path fill="#fff" d="M15.5 51h-10C5.224 51 5 50.776 5 50.5S5.224 50 5.5 50h10c.276 0 .5.224.5.5S15.777 51 15.5 51zM18.5 51h-1c-.276 0-.5-.224-.5-.5s.224-.5.5-.5h1c.276 0 .5.224.5.5S18.777 51 18.5 51zM23.491 53H14.5c-.276 0-.5-.224-.5-.5s.224-.5.5-.5h8.991c.276 0 .5.224.5.5S23.767 53 23.491 53zM12.5 53h-1c-.276 0-.5-.224-.5-.5s.224-.5.5-.5h1c.276 0 .5.224.5.5S12.777 53 12.5 53zM9.5 53h-2C7.224 53 7 52.776 7 52.5S7.224 52 7.5 52h2c.276 0 .5.224.5.5S9.777 53 9.5 53zM15.5 55h-2c-.276 0-.5-.224-.5-.5s.224-.5.5-.5h2c.276 0 .5.224.5.5S15.776 55 15.5 55zM18.5 46c-.177 0-.823 0-1 0-.276 0-.5.224-.5.5 0 .276.224.5.5.5.177 0 .823 0 1 0 .276 0 .5-.224.5-.5C19 46.224 18.776 46 18.5 46zM18.5 48c-.177 0-4.823 0-5 0-.276 0-.5.224-.5.5 0 .276.224.5.5.5.177 0 4.823 0 5 0 .276 0 .5-.224.5-.5C19 48.224 18.776 48 18.5 48zM23.5 50c-.177 0-2.823 0-3 0-.276 0-.5.224-.5.5 0 .276.224.5.5.5.177 0 2.823 0 3 0 .276 0 .5-.224.5-.5C24 50.224 23.776 50 23.5 50z"/><g><path fill="#fff" d="M67.5 20h-10c-.276 0-.5-.224-.5-.5s.224-.5.5-.5h10c.276 0 .5.224.5.5S67.776 20 67.5 20zM73.5 20h-4c-.276 0-.5-.224-.5-.5s.224-.5.5-.5h4c.276 0 .5.224.5.5S73.776 20 73.5 20zM76.5 22h-10c-.276 0-.5-.224-.5-.5s.224-.5.5-.5h10c.276 0 .5.224.5.5S76.777 22 76.5 22zM64.5 22h-1c-.276 0-.5-.224-.5-.5s.224-.5.5-.5h1c.276 0 .5.224.5.5S64.776 22 64.5 22zM61.47 22H59.5c-.276 0-.5-.224-.5-.5s.224-.5.5-.5h1.97c.276 0 .5.224.5.5S61.746 22 61.47 22zM70.5 18h-5c-.276 0-.5-.224-.5-.5s.224-.5.5-.5h5c.276 0 .5.224.5.5S70.777 18 70.5 18zM67.5 24h-2c-.276 0-.5-.224-.5-.5s.224-.5.5-.5h2c.276 0 .5.224.5.5S67.776 24 67.5 24z"/></g><g><path fill="#e1e0d8" d="M66.519,71.85H39c-1.571,0-2.85-1.278-2.85-2.85s1.278-2.85,2.85-2.85h27.531l-0.36,0.414 C65.577,67.248,65.25,68.112,65.25,69c0,0.887,0.324,1.753,0.913,2.437L66.519,71.85z"/><path fill="#bd977c" d="M36.15,66.529V31c0-1.572,1.278-2.85,2.85-2.85h26c1.571,0,2.85,1.278,2.85,2.85v34.25H39 c-0.895,0-1.737,0.319-2.437,0.922L36.15,66.529z"/><path fill="#9f8066" d="M45,28.15h-6c-1.571,0-2.85,1.278-2.85,2.85v35.529l0.413-0.356 c0.699-0.604,1.542-0.922,2.437-0.922h6V28.15z"/></g><g><path fill="#472b29" d="M68.599,66.431C68.834,66.394,69,66.181,69,65.944V31c0-2.209-1.791-4-4-4H39c-2.209,0-4,1.791-4,4 v38c0,0.552,0.112,1.078,0.314,1.557c0.202,0.479,0.495,0.91,0.857,1.271c0.181,0.181,0.379,0.345,0.592,0.488 c0.426,0.288,0.909,0.495,1.43,0.602C38.454,72.972,38.724,73,39,73c0.087,0,29.235,0,29.3,0c0.386,0,0.699-0.313,0.7-0.699h0 c0,0,0,0,0-0.001s0,0,0,0c0-0.003-0.002-0.006-0.002-0.009c-0.005-0.375-0.274-0.678-0.639-0.771 C67.235,71.234,66.4,70.213,66.4,69C66.4,67.703,67.355,66.624,68.599,66.431z M39,28.4h26c1.436,0,2.6,1.164,2.6,2.6v34 c0,0-26.57,0-28.6,0c-0.998,0-1.899,0.379-2.6,0.983V31C36.4,29.564,37.564,28.4,39,28.4z M39,71.6c-1.434,0-2.6-1.166-2.6-2.6 s1.166-2.6,2.6-2.6h26.983C65.376,67.098,65,68.001,65,69c0,0.996,0.371,1.9,0.974,2.6H39z"/><path fill="#472b29" d="M44.625 55c-.207 0-.375-.168-.375-.375v-10.25c0-.207.168-.375.375-.375S45 44.168 45 44.375v10.25C45 54.832 44.832 55 44.625 55zM44.625 60c-.207 0-.375-.168-.375-.375v-1.25c0-.207.168-.375.375-.375S45 58.168 45 58.375v1.25C45 59.832 44.832 60 44.625 60zM44.625 63c-.207 0-.375-.168-.375-.375v-1.25c0-.207.168-.375.375-.375S45 61.168 45 61.375v1.25C45 62.832 44.832 63 44.625 63zM65.625 69h-19.25C46.168 69 46 68.832 46 68.625s.168-.375.375-.375h19.25c.207 0 .375.168.375.375S65.832 69 65.625 69zM65.625 70.75h-12.25c-.207 0-.375-.168-.375-.375S53.168 70 53.375 70h12.25C65.832 70 66 70.168 66 70.375S65.832 70.75 65.625 70.75zM51.625 70.75h-1.25c-.207 0-.375-.168-.375-.375S50.168 70 50.375 70h1.25C51.832 70 52 70.168 52 70.375S51.832 70.75 51.625 70.75z"/></g><g><path fill="#ee3e54" d="M40.25 26.25L50.75 26.25 50.75 46.75 45.5 44.375 40.25 46.75z"/><path fill="#472b29" d="M50.625,47c-0.051,0-0.103-0.01-0.15-0.032L45.5,44.785l-4.975,2.184 c-0.115,0.051-0.25,0.04-0.355-0.029C40.063,46.87,40,46.751,40,46.625v-20.25C40,26.168,40.168,26,40.375,26h10.25 C50.832,26,51,26.168,51,26.375v20.25c0,0.126-0.063,0.245-0.17,0.314C50.769,46.979,50.696,47,50.625,47z M45.5,44 c0.052,0,0.103,0.011,0.15,0.032l4.6,2.019V26.75h-9.5v19.301l4.6-2.019C45.397,44.011,45.448,44,45.5,44z"/></g><g><path fill="#fdfcef" d="M37.5,73.5c0,0,1.567,0,3.5,0s3.5-1.567,3.5-3.5c0-1.781-1.335-3.234-3.055-3.455 C41.473,66.366,41.5,66.187,41.5,66c0-1.933-1.567-3.5-3.5-3.5c-1.032,0-1.95,0.455-2.59,1.165 c-0.384-1.808-1.987-3.165-3.91-3.165c-2.209,0-4,1.791-4,4c0,0.191,0.03,0.374,0.056,0.558C27.128,64.714,26.592,64.5,26,64.5 c-1.228,0-2.245,0.887-2.455,2.055C23.366,66.527,23.187,66.5,23,66.5c-1.933,0-3.5,1.567-3.5,3.5s1.567,3.5,3.5,3.5s7.5,0,7.5,0 V74h7V73.5z"/><path fill="#472b29" d="M39.25 69C39.112 69 39 68.888 39 68.75c0-1.223.995-2.218 2.218-2.218.034.009.737-.001 1.244.136.133.036.212.173.176.306-.036.134-.173.213-.306.176-.444-.12-1.1-.12-1.113-.118-.948 0-1.719.771-1.719 1.718C39.5 68.888 39.388 69 39.25 69zM32.5 73A.5.5 0 1 0 32.5 74 .5.5 0 1 0 32.5 73z"/><path fill="#472b29" d="M41,74h-3.5c-0.276,0-0.5-0.224-0.5-0.5s0.224-0.5,0.5-0.5H41c1.654,0,3-1.346,3-3 c0-1.496-1.125-2.768-2.618-2.959c-0.134-0.018-0.255-0.088-0.336-0.196s-0.115-0.244-0.094-0.377C40.975,66.314,41,66.16,41,66 c0-1.654-1.346-3-3-3c-0.85,0-1.638,0.355-2.219,1c-0.125,0.139-0.321,0.198-0.5,0.148c-0.182-0.049-0.321-0.195-0.36-0.379 C34.58,62.165,33.141,61,31.5,61c-1.93,0-3.5,1.57-3.5,3.5c0,0.143,0.021,0.28,0.041,0.418c0.029,0.203-0.063,0.438-0.242,0.54 c-0.179,0.102-0.396,0.118-0.556-0.01C26.878,65.155,26.449,65,26,65c-0.966,0-1.792,0.691-1.963,1.644 c-0.048,0.267-0.296,0.446-0.569,0.405C23.314,67.025,23.16,67,23,67c-1.654,0-3,1.346-3,3s1.346,3,3,3h7.5 c0.276,0,0.5,0.224,0.5,0.5S30.776,74,30.5,74H23c-2.206,0-4-1.794-4-4s1.794-4,4-4c0.059,0,0.116,0.002,0.174,0.006 C23.588,64.82,24.711,64,26,64c0.349,0,0.689,0.061,1.011,0.18C27.176,61.847,29.126,60,31.5,60c1.831,0,3.466,1.127,4.153,2.774 C36.333,62.276,37.155,62,38,62c2.206,0,4,1.794,4,4c0,0.048-0.001,0.095-0.004,0.142C43.739,66.59,45,68.169,45,70 C45,72.206,43.206,74,41,74z"/><path fill="#472b29" d="M35.5,73c-0.159,0-0.841,0-1,0c-0.276,0-0.5,0.224-0.5,0.5c0,0.276,0.224,0.5,0.5,0.5 c0.159,0,0.841,0,1,0c0.276,0,0.5-0.224,0.5-0.5C36,73.224,35.776,73,35.5,73z"/></g></svg>